# xmcd
#
# Track frame offsets:
#	150
#	18473
#	35027
#	51956
#	70518
#	94000
#	117266
#	129632
#	140927
#	153592
#	177242
#	197676
#	210909
#	231191
#
# Disc length: 3268 seconds
#
# Revision: 2
# Processed by: cddbd v1.5.2PL0 Copyright (c) Steve Scherf et al.
# Submitted via: audiograbber 1.83.01
#
DISCID=c70cc20e
DTITLE=Electric Blues Duo - The last fair deal
DYEAR=2006
DGENRE=Blues
TTITLE0=White Lady
TTITLE1=All Alone with the blues
TTITLE2=You gonna suffer
TTITLE3=Steady rollin man
TTITLE4=Goin down slow
TTITLE5=Louise
TTITLE6=last fair deal
TTITLE7=Bitch
TTITLE8=Cajun Moon
TTITLE9=Black Jack
TTITLE10=All in Love is fair
TTITLE11=Lucky at cards
TTITLE12=My jug and I
TTITLE13=Roberta
EXTD=Frank Diez and Colin Hodgkison
EXTT0=
EXTT1=
EXTT2=
EXTT3=
EXTT4=
EXTT5=
EXTT6=
EXTT7=
EXTT8=
EXTT9=
EXTT10=
EXTT11=
EXTT12=
EXTT13=
PLAYORDER=
